<svg xmlns="http://www.w3.org/2000/svg" viewBox="0 0 50 32">
  <path fill-rule="evenodd" clip-rule="evenodd" d="M23.8217 0.00893348C18.8038 0.239097 14.0423 1.73405 9.79109 4.41412L9.03742 4.88926H4.52645C2.04536 4.88926 0.0154295 4.89938 0.0154295 4.91169C0.0154295 4.92405 0.928642 5.92362 2.04479 7.13293L4.07419 9.33169L3.88484 9.48746C3.78069 9.57316 3.5075 9.85029 3.27775 10.1033C1.49731 12.0644 0.429786 14.3667 0.0778578 17.0043C-0.0251489 17.7763 -0.0261161 19.2973 0.0759674 20.0495C0.352367 22.0869 0.996609 23.8074 2.10216 25.4607C4.09345 28.4387 7.26221 30.4037 10.8744 30.9007C11.5491 30.9935 13.2731 31.006 13.9299 30.9228C15.9044 30.6725 17.8268 29.9708 19.3814 28.933C19.8533 28.6179 20.6068 28.0375 20.7862 27.8508C20.8568 27.7774 20.9385 27.7172 20.9678 27.7172C20.9971 27.7172 21.9065 28.6785 22.9887 29.8533C24.071 31.0281 24.9682 31.9941 24.9826 32C24.997 32.0058 25.9066 31.0363 27.0039 29.8455L28.9991 27.6804L29.3231 27.962C34.236 32.2323 41.7157 31.9606 46.3311 27.3442C49.7424 23.9322 50.8806 18.9755 49.2984 14.4217C48.6915 12.675 47.7468 11.1663 46.3819 9.76455L45.9454 9.31627L46.1463 9.0854C46.2568 8.95847 47.1667 7.96731 48.1682 6.88287L49.989 4.91117L45.4653 4.89999L40.9415 4.88886L40.5589 4.63254C39.5325 3.94503 37.8325 3.01101 36.6371 2.47773C33.6286 1.1357 30.4541 0.33076 27.141 0.069925C26.5119 0.0204132 24.4127 -0.0181446 23.8217 0.00893348ZM26.9295 4.14509C29.3349 4.34542 31.4684 4.8284 33.7465 5.68841C34.079 5.8139 34.3509 5.92699 34.3508 5.9397C34.3507 5.95236 34.1777 6.03048 33.9661 6.1133C33.7547 6.19611 33.3343 6.38565 33.0321 6.5345C29.4695 8.28914 26.8033 11.1677 25.6481 14.5066C25.3262 15.4371 25.0988 16.4914 25.0456 17.2999C25.0301 17.5357 25.0107 17.7219 25.0024 17.7136C24.9941 17.7054 24.9668 17.4932 24.9417 17.242C24.6514 14.3388 23.3631 11.7254 21.1193 9.48829C20.1024 8.47435 18.9678 7.62406 17.6705 6.90369C17.1293 6.60316 16.3252 6.22148 15.8753 6.0516C15.7604 6.00822 15.6665 5.95762 15.6665 5.93917C15.6665 5.92068 15.7209 5.88541 15.7874 5.86074C15.8538 5.83612 16.205 5.70598 16.5677 5.5716C18.8228 4.73612 21.1748 4.24929 23.6745 4.10066C24.4126 4.0568 26.1545 4.08055 26.9295 4.14509ZM13.3711 10.1497C14.3732 10.2584 15.253 10.5086 16.1501 10.9398C19.0854 12.3507 20.9421 15.2947 20.9421 18.5379C20.9421 22.1677 18.615 25.3847 15.1609 26.5298C13.2385 27.1672 11.2246 27.1068 9.33571 26.3551C7.75949 25.7278 6.357 24.5834 5.41227 23.1537C4.7449 22.1437 4.27216 20.8848 4.09851 19.6552C4.01669 19.0757 4.02865 17.8166 4.12115 17.2672C4.36475 15.8206 4.88853 14.5854 5.73268 13.4668C6.94343 11.8625 8.68373 10.7459 10.6598 10.3055C11.5341 10.1106 12.5003 10.0551 13.3711 10.1497ZM38.3864 10.1499C40.7536 10.4078 42.9008 11.6358 44.3019 13.5332C45.8824 15.6735 46.359 18.4402 45.5853 20.9834C44.5936 24.2435 41.7327 26.5818 38.3141 26.9265C34.7815 27.2826 31.3468 25.3325 29.8326 22.111C28.4317 19.1306 28.9024 15.6307 31.0473 13.0779C31.9582 11.9938 33.133 11.1718 34.525 10.6446C35.2379 10.3747 35.8061 10.2436 36.747 10.1321C37.0485 10.0964 37.989 10.1065 38.3864 10.1499ZM12.1054 14.1388C11.3952 14.1887 10.6176 14.4612 9.98994 14.8802C9.57738 15.1555 8.95613 15.807 8.70299 16.2296C8.42664 16.6911 8.21293 17.2609 8.12236 17.7778C8.03074 18.301 8.0595 19.1366 8.18558 19.6148C8.59163 21.1547 9.73706 22.327 11.2921 22.7939C11.6547 22.9028 11.7522 22.913 12.4571 22.9159C13.1317 22.9186 13.2725 22.9065 13.6002 22.8172C15.4089 22.3246 16.7042 20.8101 16.8942 18.9658C17.0266 17.6795 16.5834 16.4152 15.6714 15.477C14.7158 14.494 13.5065 14.0402 12.1054 14.1388ZM36.5766 14.2037C35.2053 14.5079 34.0685 15.4177 33.4708 16.6892C33.1695 17.3301 33.098 17.6847 33.098 18.5379C33.098 19.1808 33.112 19.3337 33.2 19.6552C33.656 21.3197 34.9641 22.5315 36.6788 22.8778C37.2271 22.9885 38.1478 22.9489 38.6814 22.7916C39.4775 22.5569 40.045 22.2236 40.621 21.6522C41.1744 21.1032 41.5246 20.5117 41.7645 19.7209C41.8742 19.359 41.8843 19.2633 41.8872 18.5598C41.8899 17.8875 41.8778 17.7471 41.7882 17.4206C41.5732 16.6363 41.1362 15.9023 40.5566 15.3519C40.0142 14.8369 39.382 14.4742 38.6594 14.2635C38.2195 14.1353 37.038 14.1013 36.5766 14.2037Z"/>
</svg>