<svg width="32" height="24" viewBox="0 0 32 24" fill="none" xmlns="http://www.w3.org/2000/svg">
  <path d="M31.6227 3.25313C31.5546 2.82053 31.3568 2.41885 31.0554 2.10135C30.754 1.78385 30.3632 1.56554 29.935 1.47535L24.7209 0.328683C24.1617 0.206649 23.5829 0.206191 23.0236 0.327339C22.4642 0.448488 21.9374 0.688418 21.4787 1.03091L6.06731 12.2665L1.75034 12.0887C1.40331 12.0763 1.06118 12.1736 0.772561 12.3668C0.483939 12.56 0.263493 12.8393 0.142534 13.1651C0.0215757 13.4908 0.00625432 13.8464 0.0987464 14.1813C0.191238 14.5163 0.386841 14.8135 0.657772 15.0309L5.0991 18.5242C5.63206 19.1731 5.98737 19.0487 14.8078 14.2398L15.6339 22.6131C15.6477 22.8415 15.7259 23.0614 15.8596 23.247C15.9932 23.4327 16.1768 23.5766 16.389 23.662C16.5416 23.7224 16.7045 23.7526 16.8686 23.7509C17.199 23.7408 17.5145 23.6113 17.7569 23.3865L19.8798 21.4487C20.0912 21.2527 20.2344 20.9942 20.2884 20.7109L22.2337 10.1331C25.4049 8.35535 28.4072 6.68424 30.5479 5.46646C30.9309 5.25087 31.239 4.92345 31.4311 4.52794C31.6231 4.13243 31.69 3.68768 31.6227 3.25313ZM29.6685 3.91979C27.4479 5.18202 24.3389 6.95091 20.9991 8.78202L20.6349 8.98646L18.5652 20.2487L17.2595 21.4398L16.2824 11.3954L15.101 11.9998C8.73211 15.5554 6.60915 16.5865 5.88077 16.9065L2.06123 13.8754L6.57362 14.0709L22.5624 2.46202C22.8137 2.27399 23.1019 2.14118 23.408 2.07225C23.7141 2.00332 24.0314 1.99983 24.3389 2.06202L29.5353 3.18202C29.6154 3.19654 29.6887 3.23628 29.7446 3.29544C29.8005 3.35461 29.8361 3.43009 29.8462 3.51091C29.8645 3.58912 29.857 3.67114 29.825 3.7448C29.793 3.81846 29.7381 3.87983 29.6685 3.91979Z" />
  <path d="M6.06839 7.14673L9.23061 8.03562L10.6874 6.97784L7.1343 5.94673L8.73318 4.96895L13.592 4.82673L15.635 3.34229L8.73318 3.55562C8.51559 3.54384 8.29935 3.59639 8.1114 3.70673L5.77526 5.06673C5.58212 5.18122 5.42717 5.35037 5.32995 5.55285C5.23272 5.75533 5.19757 5.98208 5.22891 6.20452C5.26026 6.42696 5.35671 6.63513 5.5061 6.80281C5.65549 6.97048 5.85114 7.09015 6.06839 7.14673Z" />
</svg>