<svg width="12" height="16" viewBox="0 0 12 16" fill="none" xmlns="http://www.w3.org/2000/svg">
<g clip-path="url(#clip0_2122_15094)">
<path fill-rule="evenodd" clip-rule="evenodd" d="M5.66667 12.5714L11.3333 16V2.28571C11.3333 1.67951 11.0945 1.09812 10.6694 0.66947C10.2444 0.240816 9.66782 0 9.06667 0H2.26667C1.66551 0 1.08897 0.240816 0.663891 0.66947C0.238809 1.09812 0 1.67951 0 2.28571V16L5.66667 12.5714ZM1.13333 13.9817L5.66667 11.2389L10.2 13.9817V2.28571C10.2 1.98261 10.0806 1.69192 9.86806 1.47759C9.65551 1.26327 9.36725 1.14286 9.06667 1.14286H2.26667C1.96609 1.14286 1.67782 1.26327 1.46528 1.47759C1.25274 1.69192 1.13333 1.98261 1.13333 2.28571V13.9817Z" fill="white"/>
</g>
<defs>
<clipPath id="clip0_2122_15094">
<rect width="11.3333" height="16" fill="white"/>
</clipPath>
</defs>
</svg>
