<svg width="14.319336" height="19.203003" viewBox="0 0 14.3193 19.203" fill="none" xmlns="http://www.w3.org/2000/svg" xmlns:xlink="http://www.w3.org/1999/xlink">
	<desc>
			Created with Pixso.
	</desc>
	<defs/>
	<path id="Vector" d="M2.74805 0.92395C2.90527 0.376831 3.40527 0 3.97461 0L10.2744 0C11.1445 0 11.7588 0.852051 11.4824 1.67761L11.4805 1.68726L9.96582 6L13.043 6C14.1787 6 14.7314 7.3728 13.9629 8.17322L13.958 8.17798L3.54688 18.8076C2.6416 19.746 1.0752 18.8796 1.3916 17.6124L2.7959 11.9976L1.27539 11.9976C1.07812 11.9978 0.883789 11.9521 0.707031 11.8641C0.530273 11.7762 0.375977 11.6484 0.256836 11.491C0.138672 11.3334 0.0576172 11.1504 0.0214844 10.9564C-0.0146484 10.7623 -0.00488281 10.5626 0.0488281 10.3728L2.74902 0.925171L2.74805 0.92395ZM3.97559 1.19995C3.95898 1.19995 3.94336 1.20508 3.93066 1.21484C3.91699 1.22461 3.9082 1.2384 3.90332 1.25403L1.20312 10.7028C1.19141 10.7509 1.22754 10.7988 1.27539 10.7988L3.56348 10.7988C3.65527 10.7988 3.74512 10.8197 3.82617 10.8595C3.9082 10.8994 3.97949 10.9574 4.03613 11.0292C4.0918 11.1008 4.13086 11.1843 4.15039 11.2733C4.16895 11.3623 4.16797 11.4545 4.14551 11.5428L2.55566 17.9028C2.55273 17.9146 2.55176 17.9266 2.55273 17.9388C2.55273 17.9436 2.55469 17.9484 2.55566 17.952C2.56055 17.9615 2.57129 17.976 2.5918 17.988C2.61328 18 2.63281 18 2.64258 18C2.64648 17.9991 2.65039 17.9976 2.6543 17.9952C2.66504 17.9897 2.6748 17.9824 2.68359 17.9736L2.6875 17.9688L13.0977 7.34155C13.1084 7.33142 13.1162 7.31787 13.1182 7.30322C13.1201 7.28516 13.1172 7.26697 13.1104 7.25037C13.1035 7.23438 13.0938 7.22021 13.0801 7.20959C13.0742 7.20483 13.0645 7.19995 13.0439 7.19995L9.12012 7.19995C9.02441 7.20007 8.92969 7.17712 8.84375 7.13306C8.75879 7.08911 8.68555 7.02527 8.62988 6.9469C8.57422 6.86865 8.53906 6.7782 8.52539 6.68323C8.51172 6.58813 8.52148 6.49133 8.55371 6.40076L10.3447 1.29602C10.3486 1.28479 10.3496 1.27295 10.3477 1.26147C10.3447 1.25 10.3408 1.23914 10.333 1.22974C10.3262 1.22046 10.3174 1.21289 10.3066 1.20764C10.2959 1.20251 10.2852 1.19983 10.2734 1.19995L3.97461 1.19995L3.97559 1.19995Z" fill="#FFFFFF" fill-opacity="1.000000" fill-rule="nonzero"/>
</svg>
