<svg width="16.799805" height="19.199951" viewBox="0 0 16.7998 19.2" fill="none" xmlns="http://www.w3.org/2000/svg" xmlns:xlink="http://www.w3.org/1999/xlink">
	<desc>
			Created with Pixso.
	</desc>
	<defs/>
	<path id="Vector" d="M10.7998 0C11.3574 -0.00012207 11.9033 0.154907 12.3779 0.447876C12.8516 0.740845 13.2354 1.16016 13.4844 1.65869C13.7334 2.1571 13.8389 2.71521 13.7891 3.27026C13.7383 3.82544 13.5342 4.35547 13.2002 4.80115L15.5996 4.80005C15.918 4.80005 16.2236 4.92639 16.4482 5.15149C16.6738 5.37646 16.7998 5.68176 16.7998 6L16.7998 9.59998C16.7998 9.91821 16.6738 10.2235 16.4482 10.4485C16.2236 10.6736 15.918 10.8 15.5996 10.8L15.5996 16.2C15.5996 16.9956 15.2842 17.7587 14.7217 18.3213C14.1592 18.8839 13.3955 19.2 12.5996 19.2L4.2002 19.2C3.4043 19.2 2.6416 18.8839 2.0791 18.3213C1.51562 17.7587 1.2002 16.9956 1.2002 16.2L1.2002 10.8C0.881836 10.8 0.576172 10.6736 0.351562 10.4485C0.125977 10.2235 0 9.91821 0 9.59998L0 6C0 5.68176 0.125977 5.37646 0.351562 5.15149C0.576172 4.92639 0.881836 4.80005 1.2002 4.80005L3.59961 4.80115C3.36328 4.48608 3.19141 4.12744 3.09375 3.74573C2.99609 3.36414 2.97461 2.96692 3.03027 2.5769C3.08594 2.18689 3.21777 1.81177 3.41895 1.47278C3.61914 1.13367 3.88477 0.837524 4.2002 0.601196C4.51562 0.364868 4.87402 0.192871 5.25586 0.0950928C5.63672 -0.00268555 6.03418 -0.0244141 6.42383 0.0313721C6.81445 0.0870361 7.18945 0.219116 7.52832 0.4198C7.86719 0.620483 8.16406 0.885986 8.40039 1.20117C8.67871 0.827759 9.04102 0.524536 9.45801 0.31604C9.87402 0.107422 10.334 -0.000732422 10.7998 0ZM7.7998 10.8L2.40039 10.8L2.40039 16.2C2.40039 16.6774 2.58984 17.1353 2.92676 17.4728C3.26465 17.8103 3.72266 18 4.2002 18L7.7998 18L7.7998 10.8ZM14.4004 10.8L9 10.8L9 18L12.5996 18C13.0771 18 13.5352 17.8103 13.873 17.4728C14.21 17.1353 14.4004 16.6774 14.4004 16.2L14.4004 10.8ZM7.7998 6L1.2002 6L1.2002 9.59998L7.7998 9.59998L7.7998 6ZM15.5996 6L9 6L9 9.59998L15.5996 9.59998L15.5996 6ZM10.7998 1.19995C10.3223 1.19995 9.86523 1.38965 9.52734 1.72717C9.18945 2.06482 9 2.52258 9 3L9 4.80005L10.7998 4.80005C11.2773 4.80005 11.7354 4.61035 12.0732 4.27283C12.4102 3.93518 12.5996 3.47742 12.5996 3C12.5996 2.52258 12.4102 2.06482 12.0732 1.72717C11.7354 1.38965 11.2773 1.19995 10.7998 1.19995ZM6 1.19995C5.53809 1.2002 5.09375 1.3783 4.75879 1.69727C4.42383 2.01624 4.22559 2.45178 4.20312 2.91345C4.18066 3.37524 4.33691 3.82776 4.63965 4.17749C4.94141 4.5271 5.36719 4.74695 5.82715 4.79163L6 4.80005L7.7998 4.80005L7.7998 3L7.79199 2.82715C7.74902 2.38184 7.54102 1.96838 7.20996 1.6676C6.87891 1.3667 6.44727 1.20007 6 1.19995Z" fill="#FFFFFF" fill-opacity="1.000000" fill-rule="nonzero"/>
</svg>
