<svg width="30" height="24" viewBox="0 0 30 24" fill="none" xmlns="http://www.w3.org/2000/svg">
<path d="M10.833 24.0002H19.1663V17.3335H10.833V24.0002Z" />
<path d="M21.667 24.0002H24.5837C26.0202 24.0002 27.398 23.5436 28.4138 22.731C29.4296 21.9183 30.0003 20.8161 30.0003 19.6668V17.3335H21.667V24.0002Z" />
<path d="M30.0003 15.3332V8.6665H21.667V15.3332H30.0003Z" />
<path d="M30.0003 6.66667V4.33333C30.0003 3.18406 29.4296 2.08186 28.4138 1.2692C27.398 0.456546 26.0202 0 24.5837 0H21.667V6.66667H30.0003Z" />
<path d="M19.1663 0H10.833V6.66667H19.1663V0Z" />
<path d="M8.33333 0H5.41667C3.98008 0 2.60233 0.456546 1.5865 1.2692C0.570683 2.08186 0 3.18406 0 4.33333V6.66667H8.33333V0Z" />
<path d="M0 8.6665V15.3332H8.33333V8.6665H0Z" />
<path d="M0 17.3335V19.6668C0 20.8161 0.570683 21.9183 1.5865 22.731C2.60233 23.5436 3.98008 24.0002 5.41667 24.0002H8.33333V17.3335H0Z" />
<path d="M19.1663 8.6665V15.3332H10.833V8.6665H19.1663Z" />
</svg>
