<svg width="17" height="17" viewBox="0 0 17 17" fill="none" xmlns="http://www.w3.org/2000/svg">
<path fill-rule="evenodd" clip-rule="evenodd" d="M5.28787 0.755002C6.11875 0.716752 6.38366 0.708252 8.50016 0.708252C10.6167 0.708252 10.8816 0.71746 11.7117 0.755002C12.5419 0.792544 13.1086 0.925002 13.6044 1.11696C14.1236 1.31317 14.5947 1.61988 14.9842 2.01654C15.3809 2.40542 15.6869 2.87575 15.8824 3.39567C16.0751 3.8915 16.2068 4.45817 16.2451 5.28692C16.2833 6.11921 16.2918 6.38413 16.2918 8.49992C16.2918 10.6164 16.2826 10.8813 16.2451 11.7122C16.2075 12.541 16.0751 13.1076 15.8824 13.6035C15.6869 14.1234 15.3804 14.5946 14.9842 14.984C14.5947 15.3807 14.1236 15.6867 13.6044 15.8822C13.1086 16.0748 12.5419 16.2066 11.7132 16.2448C10.8816 16.2831 10.6167 16.2916 8.50016 16.2916C6.38366 16.2916 6.11875 16.2824 5.28787 16.2448C4.45912 16.2073 3.89245 16.0748 3.39662 15.8822C2.87665 15.6866 2.40554 15.3801 2.01608 14.984C1.61968 14.5949 1.31293 14.124 1.1172 13.6042C0.925246 13.1083 0.793496 12.5417 0.755246 11.7129C0.716996 10.8806 0.708496 10.6157 0.708496 8.49992C0.708496 6.38342 0.717704 6.1185 0.755246 5.28833C0.792788 4.45817 0.925246 3.8915 1.1172 3.39567C1.31322 2.87581 1.62021 2.40493 2.01679 2.01584C2.40569 1.61952 2.87633 1.31277 3.39591 1.11696C3.89175 0.925002 4.45912 0.793252 5.28787 0.755002ZM11.6487 2.1575C10.827 2.11996 10.5805 2.11217 8.50016 2.11217C6.41979 2.11217 6.17329 2.11996 5.35162 2.1575C4.59158 2.19221 4.17933 2.319 3.9045 2.42596C3.54112 2.56763 3.28116 2.7355 3.00845 3.00821C2.74994 3.25971 2.551 3.56587 2.4262 3.90425C2.31925 4.17909 2.19245 4.59133 2.15775 5.35138C2.1202 6.17304 2.11241 6.41954 2.11241 8.49992C2.11241 10.5803 2.1202 10.8268 2.15775 11.6485C2.19245 12.4085 2.31925 12.8208 2.4262 13.0956C2.55087 13.4335 2.74991 13.7402 3.00845 13.9916C3.25991 14.2502 3.56662 14.4492 3.9045 14.5739C4.17933 14.6808 4.59158 14.8076 5.35162 14.8423C6.17329 14.8799 6.41908 14.8877 8.50016 14.8877C10.5812 14.8877 10.827 14.8799 11.6487 14.8423C12.4087 14.8076 12.821 14.6808 13.0958 14.5739C13.4592 14.4322 13.7192 14.2643 13.9919 13.9916C14.2504 13.7402 14.4495 13.4335 14.5741 13.0956C14.6811 12.8208 14.8079 12.4085 14.8426 11.6485C14.8801 10.8268 14.8879 10.5803 14.8879 8.49992C14.8879 6.41954 14.8801 6.17304 14.8426 5.35138C14.8079 4.59133 14.6811 4.17909 14.5741 3.90425C14.4325 3.54088 14.2646 3.28092 13.9919 3.00821C13.7404 2.74972 13.4342 2.55078 13.0958 2.42596C12.821 2.319 12.4087 2.19221 11.6487 2.1575ZM7.50495 10.9019C8.06075 11.1332 8.67964 11.1645 9.2559 10.9902C9.83217 10.816 10.3301 10.4471 10.6646 9.94651C10.999 9.44595 11.1494 8.84478 11.0899 8.2457C11.0304 7.64662 10.7647 7.08677 10.3383 6.66179C10.0665 6.39013 9.73777 6.18212 9.3759 6.05273C9.01402 5.92334 8.62797 5.8758 8.24551 5.91352C7.86306 5.95124 7.49373 6.07329 7.16411 6.27089C6.83448 6.46848 6.55277 6.7367 6.33925 7.05623C6.12573 7.37576 5.98571 7.73866 5.92928 8.11881C5.87284 8.49895 5.90139 8.88688 6.01288 9.25466C6.12436 9.62244 6.316 9.96093 6.57401 10.2458C6.83201 10.5306 7.14995 10.7547 7.50495 10.9019ZM5.66825 5.668C6.04014 5.29611 6.48164 5.00111 6.96754 4.79984C7.45344 4.59857 7.97423 4.49498 8.50016 4.49498C9.0261 4.49498 9.54688 4.59857 10.0328 4.79984C10.5187 5.00111 10.9602 5.29611 11.3321 5.668C11.704 6.03989 11.999 6.48139 12.2002 6.9673C12.4015 7.4532 12.5051 7.97398 12.5051 8.49992C12.5051 9.02585 12.4015 9.54664 12.2002 10.0325C11.999 10.5184 11.704 10.9599 11.3321 11.3318C10.581 12.0829 9.56234 12.5049 8.50016 12.5049C7.43799 12.5049 6.41932 12.0829 5.66825 11.3318C4.91717 10.5808 4.49523 9.56209 4.49523 8.49992C4.49523 7.43774 4.91717 6.41907 5.66825 5.668ZM13.3933 5.09142C13.4855 5.00448 13.5593 4.89994 13.6103 4.78398C13.6613 4.66802 13.6886 4.543 13.6904 4.41633C13.6923 4.28965 13.6687 4.16389 13.621 4.04649C13.5734 3.92909 13.5027 3.82245 13.4131 3.73286C13.3235 3.64328 13.2169 3.57258 13.0995 3.52495C12.9821 3.47732 12.8563 3.45373 12.7297 3.45558C12.603 3.45743 12.478 3.48467 12.362 3.5357C12.2461 3.58673 12.1415 3.66051 12.0546 3.75267C11.8855 3.9319 11.7929 4.16996 11.7965 4.41633C11.8001 4.66269 11.8996 4.89796 12.0738 5.07218C12.248 5.24641 12.4833 5.34587 12.7297 5.34946C12.976 5.35306 13.2141 5.26049 13.3933 5.09142Z" />
</svg>
