<svg id="location" viewBox="0 0 8 10" fill="none" xmlns="http://www.w3.org/2000/svg">
  <path d="M4.00021 0.803711C5.92342 0.803711 7.48235 2.36264 7.48235 4.28585C7.48235 5.75728 6.44842 7.36085 4.40735 9.11371C4.29386 9.21121 4.14916 9.26475 3.99954 9.26462C3.84992 9.26449 3.70532 9.21069 3.592 9.113L3.45699 8.99585C1.50628 7.28871 0.518066 5.72443 0.518066 4.28585C0.518066 2.36264 2.07699 0.803711 4.00021 0.803711ZM4.00021 1.33943C3.21877 1.33943 2.46933 1.64985 1.91677 2.20241C1.36421 2.75498 1.05378 3.50441 1.05378 4.28585C1.05378 5.53657 1.96378 6.97764 3.80878 8.59193L3.94199 8.70728C3.95819 8.72121 3.97885 8.72887 4.00021 8.72887C4.02157 8.72887 4.04223 8.72121 4.05842 8.70728C5.99271 7.04585 6.94664 5.56621 6.94664 4.28585C6.94664 3.89892 6.87043 3.51578 6.72235 3.1583C6.57428 2.80083 6.35725 2.47602 6.08365 2.20241C5.81005 1.92881 5.48524 1.71178 5.12776 1.56371C4.77028 1.41564 4.38714 1.33943 4.00021 1.33943ZM4.00021 2.94657C4.35541 2.94657 4.69606 3.08767 4.94723 3.33884C5.19839 3.59 5.33949 3.93065 5.33949 4.28585C5.33949 4.64105 5.19839 4.98171 4.94723 5.23287C4.69606 5.48404 4.35541 5.62514 4.00021 5.62514C3.64501 5.62514 3.30436 5.48404 3.05319 5.23287C2.80203 4.98171 2.66092 4.64105 2.66092 4.28585C2.66092 3.93065 2.80203 3.59 3.05319 3.33884C3.30436 3.08767 3.64501 2.94657 4.00021 2.94657ZM4.00021 3.48228C3.78709 3.48228 3.5827 3.56694 3.432 3.71764C3.2813 3.86834 3.19664 4.07273 3.19664 4.28585C3.19664 4.49897 3.2813 4.70337 3.432 4.85406C3.5827 5.00476 3.78709 5.08943 4.00021 5.08943C4.21333 5.08943 4.41772 5.00476 4.56842 4.85406C4.71912 4.70337 4.80378 4.49897 4.80378 4.28585C4.80378 4.07273 4.71912 3.86834 4.56842 3.71764C4.41772 3.56694 4.21333 3.48228 4.00021 3.48228Z"/>
</svg>