<svg viewBox="0 0 9 9" fill="none" xmlns="http://www.w3.org/2000/svg">
  <path d="M8.87587 4.62076C8.83843 4.58332 8.79209 4.55602 8.74121 4.54139C8.69033 4.52677 8.63657 4.52532 8.58497 4.53716C8.01691 4.66741 7.42508 4.65125 6.86497 4.49018C6.30487 4.32911 5.79486 4.02842 5.38277 3.61631C4.97067 3.2042 4.67 2.69418 4.50896 2.13407C4.34791 1.57397 4.33177 0.982132 4.46204 0.414078C4.47387 0.362482 4.4724 0.308726 4.45776 0.257853C4.44313 0.20698 4.41581 0.160658 4.37838 0.123233C4.34094 0.0858076 4.29461 0.0585057 4.24373 0.0438885C4.19286 0.0292712 4.1391 0.0278177 4.08751 0.0396644C3.38082 0.202685 2.73065 0.551903 2.20451 1.05106C1.67837 1.55022 1.29543 2.18112 1.09547 2.87825C0.895503 3.57539 0.885796 4.31334 1.06735 5.0155C1.24891 5.71765 1.61512 6.35841 2.12795 6.87123C2.64078 7.38406 3.28153 7.75026 3.98369 7.93181C4.68584 8.11336 5.4238 8.10365 6.12093 7.90368C6.81807 7.70371 7.44896 7.32077 7.94812 6.79462C8.44727 6.26848 8.79648 5.61831 8.9595 4.91162C8.97135 4.86002 8.96989 4.80626 8.95527 4.75537C8.94065 4.70449 8.91334 4.65816 8.87591 4.62072L8.87587 4.62076ZM7.1559 6.67673C6.54654 7.17138 5.78478 7.4399 4.99993 7.43673C4.08856 7.4357 3.21482 7.0732 2.57039 6.42877C1.92596 5.78434 1.56346 4.9106 1.56243 3.99923C1.55925 3.21439 1.82778 2.45262 2.32243 1.84326C2.70388 1.37101 3.20284 1.00741 3.76923 0.788961C3.75641 0.920875 3.74993 1.05373 3.74993 1.18673C3.75115 2.2638 4.17955 3.29641 4.94115 4.05801C5.70276 4.81961 6.73536 5.24801 7.81243 5.24923C7.94542 5.24923 8.07803 5.2428 8.21024 5.22994C7.99178 5.79633 7.62817 6.29529 7.1559 6.67673Z" />
</svg>