<svg width="12" height="17" viewBox="0 0 12 17" fill="none" xmlns="http://www.w3.org/2000/svg">
<path d="M5.10756 11.9753C3.78967 11.8378 2.60139 11.5132 1.58404 10.7175C1.4578 10.6185 1.32747 10.5231 1.21228 10.4125C0.766983 9.98488 0.722115 9.49508 1.07447 8.99032C1.3759 8.55838 1.88191 8.44282 2.40785 8.69084C2.5097 8.73892 2.60673 8.79892 2.69967 8.86337C4.59568 10.1661 7.20032 10.2021 9.10345 8.92195C9.292 8.77737 9.49355 8.65951 9.72714 8.59933C10.1813 8.48271 10.6049 8.64954 10.8487 9.04693C11.1271 9.50077 11.1236 9.94375 10.7805 10.2961C10.2542 10.8363 9.62121 11.2271 8.91792 11.4999C8.25292 11.7577 7.52454 11.8875 6.80363 11.9737C6.91242 12.0921 6.96369 12.1503 7.03171 12.2186C8.0106 13.2022 8.99377 14.1816 9.96946 15.1682C10.3019 15.5043 10.3713 15.9211 10.1883 16.3121C9.98816 16.7394 9.5402 17.0205 9.10096 16.9905C8.82267 16.9712 8.60563 16.8327 8.41281 16.6385C7.6741 15.8951 6.9215 15.1655 6.19774 14.4081C5.98711 14.1878 5.8858 14.2295 5.69992 14.4207C4.95676 15.1858 4.20149 15.9391 3.44177 16.6881C3.10063 17.0245 2.69469 17.085 2.29907 16.8929C1.87852 16.689 1.61092 16.2598 1.63157 15.8283C1.64582 15.5365 1.78932 15.3136 1.98962 15.1137C2.95837 14.1463 3.92445 13.1765 4.89088 12.2076C4.9548 12.1432 5.01445 12.0748 5.10756 11.9753Z" />
<path d="M5.91036 8.6048C3.55926 8.59678 1.63138 6.64772 1.64509 4.29288C1.65862 1.91205 3.58775 -0.00657078 5.96199 1.69137e-05C8.34104 0.00642657 10.2506 1.95265 10.2387 4.35822C10.2265 6.70825 8.28531 8.61299 5.91036 8.6048ZM8.04708 4.29858C8.04299 3.12935 7.11181 2.19853 5.9449 2.19746C4.76819 2.19621 3.82865 3.14395 3.83773 4.32386C3.84645 5.48864 4.78564 6.41287 5.95576 6.4086C7.12232 6.40451 8.051 5.46763 8.04708 4.29858Z" />
</svg>
