<svg viewBox="0 0 10 8" fill="none" xmlns="http://www.w3.org/2000/svg">
  <path fill-rule="evenodd" clip-rule="evenodd" d="M9.375 7.75C9.375 7.75 10 7.75 10 7.125C10 6.5 9.375 4.625 6.875 4.625C4.375 4.625 3.75 6.5 3.75 7.125C3.75 7.75 4.375 7.75 4.375 7.75H9.375ZM4.37813 7.16V7.15875V7.16ZM4.38875 7.125H9.36125C9.36418 7.12466 9.36709 7.12424 9.37 7.12375L9.375 7.1225C9.37375 6.9575 9.27063 6.47875 8.9 6.0475C8.555 5.64313 7.94875 5.25 6.875 5.25C5.80188 5.25 5.19563 5.64375 4.85 6.0475C4.47938 6.47875 4.37563 6.95813 4.375 7.1225C4.37957 7.12338 4.38416 7.12422 4.38875 7.125ZM9.37187 7.16V7.15875V7.16ZM6.875 3.375C7.20652 3.375 7.52446 3.2433 7.75888 3.00888C7.9933 2.77446 8.125 2.45652 8.125 2.125C8.125 1.79348 7.9933 1.47554 7.75888 1.24112C7.52446 1.0067 7.20652 0.875 6.875 0.875C6.54348 0.875 6.22554 1.0067 5.99112 1.24112C5.7567 1.47554 5.625 1.79348 5.625 2.125C5.625 2.45652 5.7567 2.77446 5.99112 3.00888C6.22554 3.2433 6.54348 3.375 6.875 3.375ZM8.75 2.125C8.75 2.37123 8.7015 2.61505 8.60727 2.84253C8.51305 3.07002 8.37494 3.27672 8.20083 3.45083C8.02672 3.62493 7.82002 3.76305 7.59253 3.85727C7.36505 3.9515 7.12123 4 6.875 4C6.62877 4 6.38495 3.9515 6.15747 3.85727C5.92998 3.76305 5.72328 3.62493 5.54917 3.45083C5.37506 3.27672 5.23695 3.07002 5.14273 2.84253C5.0485 2.61505 5 2.37123 5 2.125C5 1.62772 5.19754 1.15081 5.54917 0.799175C5.90081 0.447544 6.37772 0.25 6.875 0.25C7.37228 0.25 7.84919 0.447544 8.20083 0.799175C8.55246 1.15081 8.75 1.62772 8.75 2.125ZM4.335 4.8C4.08499 4.72127 3.82727 4.66952 3.56625 4.64563C3.41958 4.63168 3.27233 4.6248 3.125 4.625C0.625 4.625 0 6.5 0 7.125C0 7.54187 0.208125 7.75 0.625 7.75H3.26C3.16735 7.55488 3.12114 7.34096 3.125 7.125C3.125 6.49375 3.36063 5.84875 3.80625 5.31C3.95813 5.12625 4.135 4.95437 4.335 4.8ZM3.075 5.25C2.0325 5.2625 1.44062 5.65 1.1 6.0475C0.726875 6.48125 0.625 6.96187 0.625 7.125H2.5C2.5 6.47188 2.70187 5.82125 3.075 5.25ZM0.9375 2.4375C0.9375 1.94022 1.13504 1.46331 1.48667 1.11167C1.83831 0.760044 2.31522 0.5625 2.8125 0.5625C3.30978 0.5625 3.78669 0.760044 4.13833 1.11167C4.48996 1.46331 4.6875 1.94022 4.6875 2.4375C4.6875 2.93478 4.48996 3.41169 4.13833 3.76333C3.78669 4.11496 3.30978 4.3125 2.8125 4.3125C2.31522 4.3125 1.83831 4.11496 1.48667 3.76333C1.13504 3.41169 0.9375 2.93478 0.9375 2.4375ZM2.8125 1.1875C2.48098 1.1875 2.16304 1.3192 1.92862 1.55362C1.6942 1.78804 1.5625 2.10598 1.5625 2.4375C1.5625 2.76902 1.6942 3.08696 1.92862 3.32138C2.16304 3.5558 2.48098 3.6875 2.8125 3.6875C3.14402 3.6875 3.46196 3.5558 3.69638 3.32138C3.9308 3.08696 4.0625 2.76902 4.0625 2.4375C4.0625 2.10598 3.9308 1.78804 3.69638 1.55362C3.46196 1.3192 3.14402 1.1875 2.8125 1.1875Z" />
</svg>