<svg width="16" height="16" viewBox="0 0 16 16" fill="none" xmlns="http://www.w3.org/2000/svg">
<path fill-rule="evenodd" clip-rule="evenodd" d="M14.6667 16C14.6667 16 16 16 16 14.6667C16 13.3333 14.6667 9.33333 8 9.33333C1.33333 9.33333 0 13.3333 0 14.6667C0 16 1.33333 16 1.33333 16H14.6667ZM1.34 14.7413V14.7387V14.7413ZM1.36267 14.6667H14.6373C14.6436 14.6659 14.6498 14.665 14.656 14.664L14.6667 14.6613C14.6653 14.3333 14.4613 13.3467 13.5573 12.4427C12.688 11.5733 11.052 10.6667 8 10.6667C4.94667 10.6667 3.312 11.5733 2.44267 12.4427C1.53867 13.3467 1.336 14.3333 1.33333 14.6613C1.34309 14.6632 1.35287 14.665 1.36267 14.6667ZM14.6613 14.7413V14.7387V14.7413ZM8 6.66667C8.70724 6.66667 9.38552 6.38572 9.88562 5.88562C10.3857 5.38552 10.6667 4.70724 10.6667 4C10.6667 3.29276 10.3857 2.61448 9.88562 2.11438C9.38552 1.61428 8.70724 1.33333 8 1.33333C7.29276 1.33333 6.61448 1.61428 6.11438 2.11438C5.61428 2.61448 5.33333 3.29276 5.33333 4C5.33333 4.70724 5.61428 5.38552 6.11438 5.88562C6.61448 6.38572 7.29276 6.66667 8 6.66667ZM12 4C12 5.06087 11.5786 6.07828 10.8284 6.82843C10.0783 7.57857 9.06087 8 8 8C6.93913 8 5.92172 7.57857 5.17157 6.82843C4.42143 6.07828 4 5.06087 4 4C4 2.93913 4.42143 1.92172 5.17157 1.17157C5.92172 0.421427 6.93913 0 8 0C9.06087 0 10.0783 0.421427 10.8284 1.17157C11.5786 1.92172 12 2.93913 12 4Z" fill="white"/>
</svg>
