<svg width="23" height="20" viewBox="0 0 23 20" fill="none" xmlns="http://www.w3.org/2000/svg">
<path fill-rule="evenodd" clip-rule="evenodd" d="M4.21875 0.625H2.65625V8.4375H4.21875V0.625ZM13.75 8.4375H8.75L8.125 7.57812V6.01562L8.75 5.3125H13.75L14.375 6.09375V7.65625L13.75 8.4375ZM5.9375 13.125H0.9375L0.3125 12.3438V10.7812L0.9375 10H5.9375L6.5625 10.7812V12.3438L5.9375 13.125ZM12.0312 0.625H10.4688V3.75H12.0312V0.625ZM10.4688 10H12.0312V19.375H10.4688V10ZM4.21875 14.6875H2.65625V19.375H4.21875V14.6875ZM16.5625 14.6875H21.5469L22.1719 13.9062V12.4219L21.5469 11.6406H16.5625L15.9375 12.4219V13.9062L16.5625 14.6875ZM19.8438 0.625H18.2812V10H19.8438V0.625ZM18.2812 16.25H19.8438V19.375H18.2812V16.25Z" fill="white"/>
</svg>
