<svg width="33" height="24" viewBox="0 0 33 24" fill="none" xmlns="http://www.w3.org/2000/svg">
<path d="M0.75 21H32.25V23.25H0.75V21Z" />
<path d="M13.125 14.25H1.875V9.75H13.125V14.25ZM14.25 14.25V9.75C14.25 9.15326 14.1315 8.58097 13.9205 8.15901C13.7095 7.73705 13.4234 7.5 13.125 7.5H1.875C1.57663 7.5 1.29048 7.73705 1.0795 8.15901C0.868526 8.58097 0.75 9.15326 0.75 9.75V14.25C0.75 14.8467 0.868526 15.419 1.0795 15.841C1.29048 16.2629 1.57663 16.5 1.875 16.5H13.125C13.4234 16.5 13.7095 16.2629 13.9205 15.841C14.1315 15.419 14.25 14.8467 14.25 14.25Z" />
<path d="M31.125 14.25H19.875V9.75H31.125V14.25ZM32.25 14.25V9.75C32.25 9.15326 32.1315 8.58097 31.9205 8.15901C31.7095 7.73705 31.4234 7.5 31.125 7.5H19.875C19.5766 7.5 19.2905 7.73705 19.0795 8.15901C18.8685 8.58097 18.75 9.15326 18.75 9.75V14.25C18.75 14.8467 18.8685 15.419 19.0795 15.841C19.2905 16.2629 19.5766 16.5 19.875 16.5H31.125C31.4234 16.5 31.7095 16.2629 31.9205 15.841C32.1315 15.419 32.25 14.8467 32.25 14.25Z" />
<path d="M0.75 0.75H32.25V3H0.75V0.75Z" />
</svg>
