<svg width="17" height="11" viewBox="0 0 17 11" fill="none" xmlns="http://www.w3.org/2000/svg">
<path fill-rule="evenodd" clip-rule="evenodd" d="M16.6104 1.21325C16.728 0.826498 16.6104 0.541748 16.0473 0.541748H14.1879C13.7148 0.541748 13.4966 0.78754 13.3783 1.05883C13.3783 1.05883 12.4327 3.32266 11.0932 4.79317C10.6597 5.21958 10.4628 5.35487 10.2262 5.35487C10.1079 5.35487 9.93012 5.21958 9.93012 4.83212V1.21325C9.93012 0.748581 9.79979 0.541748 9.40596 0.541748H6.48196C6.18658 0.541748 6.00879 0.757081 6.00879 0.96179C6.00879 1.40166 6.67887 1.50366 6.74758 2.74183V5.43208C6.74758 6.02212 6.63921 6.12908 6.40262 6.12908C5.77221 6.12908 4.23867 3.85462 3.32846 1.25221C3.15208 0.745748 2.97358 0.541748 2.49829 0.541748H0.6375C0.10625 0.541748 0 0.78754 0 1.05883C0 1.54191 0.630417 3.94175 2.93604 7.11579C4.47312 9.28329 6.63708 10.4584 8.60837 10.4584C9.79058 10.4584 9.9365 10.1977 9.9365 9.74796V8.10958C9.9365 7.58754 10.0484 7.48342 10.4231 7.48342C10.6994 7.48342 11.1718 7.61941 12.2754 8.66421C13.5362 9.90308 13.7438 10.4584 14.4535 10.4584H16.3129C16.8442 10.4584 17.1105 10.1977 16.9575 9.68208C16.7889 9.16925 16.1868 8.42479 15.3885 7.5415C14.955 7.03858 14.3048 6.49671 14.1072 6.22542C13.8316 5.87762 13.9102 5.7225 14.1072 5.41296C14.1072 5.41296 16.3738 2.27787 16.6097 1.21325H16.6104Z" />
</svg>
