<?xml version="1.0" encoding="utf-8"?>
<!-- Generator: Adobe Illustrator 28.0.0, SVG Export Plug-In . SVG Version: 6.00 Build 0)  -->
<svg version="1.1" id="Camada_1" xmlns="http://www.w3.org/2000/svg" xmlns:xlink="http://www.w3.org/1999/xlink" x="0px" y="0px"
	 viewBox="0 0 2415.1 725.3" style="enable-background:new 0 0 2415.1 725.3;" xml:space="preserve">
<style type="text/css">
	.st0{fill:#F7EEE5;}
	.st1{fill:#9274ED;}
	.st2{fill:#54DD7B;}
</style>
<g>
	<path class="st2" d="M1873.9,396.3c2.3,0,4.7-0.1,6.9-0.3c26.3-2.5,53.3-11.6,69.7-33.6c9-12.1,13.2-27.7,10.2-42.6
		c-6-29.4-35.6-46-62.4-53.1c-31.3-8.2-67-6.5-96.7,6.6c-28,12.3-51.6,34-64.5,61.9c-9.1,19.7-12.4,41.8-9.3,63.3
		c3.7,25,16.9,48.1,35,65.4c18.9,18.1,43.3,30.1,68.9,35c9.1,1.7,18.3,2.6,27.5,2.6c36.3,0,69.1-13.2,93.1-34.5V393
		c-16.5,13.5-53.4,33-103.2,22.6c-19.2-4-47-20-56-36.5l10.3-9.6C1819.6,385.8,1845.1,396.3,1873.9,396.3z M1849.2,320.4
		c8.5-17.7,22.3-28.6,30.9-24.5c8.6,4.1,8.6,21.8,0.2,39.4c-8.5,17.7-22.3,28.6-30.9,24.5C1840.8,355.7,1840.7,338,1849.2,320.4z"/>
	<path class="st2" d="M1259.8,364.7c-3.7-25-16.8-48.1-35-65.4c-18.9-18.1-43.2-30.1-68.9-34.9c-9-1.7-18.3-2.6-27.5-2.6
		c-36.3,0-69.1,13.2-93.1,34.5v73.9c16.5-13.5,52.8-32.2,102.6-21.4c19.2,4.1,44.9,17.7,53.8,34.3l-7.6,10.6
		c-16-16.3-41.6-26.8-70.4-26.8c-2.3,0-4.6,0.1-6.9,0.3c-26.4,2.4-53.3,11.6-69.7,33.6c-9,12.1-13.2,27.7-10.2,42.6
		c3.1,15.2,12.5,27.1,24.6,35.9c0.3,0.2,0.6,0.5,0.9,0.7c11.1,7.8,24.2,13.3,36.8,16.6c4.1,1.1,8.3,2,12.6,2.7
		c22.2,3.1,45.5-0.1,65.5-10c6.5-3.2,18.5-12,18.5-12h11.9v17.6h63.1v-105c0-1.1,0-2.1-0.2-3.1
		C1260.8,386.6,1260.8,371.9,1259.8,364.7z M1155.4,440.4c-8.3,17.3-21.9,28.1-30.3,24.1c-8.4-4-8.5-21.4-0.2-38.7
		c8.3-17.3,21.9-28.1,30.3-24.1C1163.6,405.8,1163.7,423.1,1155.4,440.4z"/>
	<path class="st2" d="M954.2,278.5c-17.1-10.7-40.9-12.5-60-5.6c-17.4,6.2-29.7,18.9-39.2,34.4c-10,16.3-15.9,35-16.6,54l-0.5,13.7
		l-19.6,0c4.5-19.2,9.4-42.2,11.5-66.8c1.4-16.6,1.9-32.2,1.7-46.4H729.7v233.1h130.9l0.1-92.5c0-13.3,10.8-24,24-24
		c6.7,0,12.6,2.7,17,7c4.3,4.3,7,10.4,7,17v15.1h82.7v-63.2c0-11.9-2-23.8-6.1-35C979.4,303.1,968.9,287.7,954.2,278.5z"/>
	<path class="st2" d="M1656.7,278.5c-17.1-10.7-40.9-12.5-60-5.6c-17.4,6.2-30.7,18.4-39.2,34.4c-1.1,2.1-2.2,4.3-3.1,6.4
		c-0.2,0.4-0.4,0.8-0.5,1.2c-0.2-0.4-0.4-0.8-0.5-1.2c-6.1-14.1-15.9-27.1-28.9-35.2c-17.1-10.7-40.9-12.5-60-5.6
		c-17.4,6.2-30.7,18.4-39.2,34.4c-16.9,31.9-17.1,67.7-17.1,67.7h-18.9c4.5-19.2,8.5-42.2,10.7-66.8c1.4-16.6,1.9-32.2,1.7-46.4
		h-101.6v233.1h133.9l0.1-92.5c0-13.3,10.8-24,24-24c6.7,0,12.6,2.7,17,7c4.3,4.3,7,10.4,7,17v92.5h90.2v-92.6
		c0-13.2,10.7-23.9,23.9-23.9c6.6,0,12.6,2.7,16.9,7c4.3,4.3,7,10.3,7,16.9v92.6h74V354.2c0-11.9-2-23.8-6.1-35
		C1681.9,303.1,1671.4,287.7,1656.7,278.5z"/>
	<path class="st2" d="M536.7,239.8c-7.9,13.3-11.6,28.6-11.6,44.1v17.8h-42.5v52.2h46.9v140.9h127.7v-70.4
		c0-28.6-16.7-50.9-43.7-60.3c-17.8-6.2-31.6-5.3-42.4-5.3h-22.4v-17.2H677v-39.9h-53.8c0,0,0.1-1.4,0.2-2.2
		c4.8-34.7,53.5-22,53.5-22v-71c0,0-48.5,0.3-86.9,0.3C562.2,206.8,546,224.1,536.7,239.8z"/>
	<path class="st2" d="M307,440.5v-12.8c20.6-2.2,46.4-6.4,69.3-14.5c11.5-4.1,21.7-9.9,31.1-15.4c52.1-30.1,61.5-136.1-44.7-136.1
		c-61,0-107.7,0-107.7,0l-1,88.9c0,0,40.7-11.7,56.1-15.9c27.9-7.6,53.5-2.7,57.2,10.8c3.6,13.3-15.5,27.7-42.2,37.8
		c-45.6,17.4-101.9,16.1-101.9,16.1v16.7v78.6h223.2v-97.4C446.4,397.4,382.8,447.2,307,440.5z"/>
	<path class="st2" d="M2201.3,413.4c-4.5-22.9-21.8-41.1-44.4-46.6c-18.9-4.6-41.2-3.8-56.5-2.4c-10.1,0.9-19.1-6.1-20.8-16.1
		c-1-5.6,0.8-11.5,4.5-15.8c5.9-6.8,16.5-7.7,24.9-8.7c10.7-1.2,21.6-1.2,32.3,0.2c2.2,0.3,21.2,2.5,21.2,4.7c0,0,0-56.4,0-56.4
		c-16.9-7.1-35.2-9.3-55-9.3c-9.2,0-62.8-1.5-93.9,28.4c-18.2,17.5-42.4,95.1,49,107.9c18.5,2.6,39.1,1.1,56.5-6.3l7.6,14.1
		c-7.8,4-15.8,7-22.7,8.4c-12,2.5-23.3,3.3-33.8,2.8c-32.7-1.5-56.8-15.2-69.4-25.4v73.9c5.5,4.9,11.4,9.3,17.6,13.2
		c12,7.5,25.3,13.2,39,16.8c14.7,3.9,29.9,4.3,45,4.4c6.7,0,13.4,0,20.1-0.4c27.1-1.7,55.7-13.1,70.6-37.1
		C2202.3,449.1,2204.6,430.3,2201.3,413.4z"/>
</g>
</svg>
