<svg width="32" height="32" viewBox="0 0 32 32" fill="none" xmlns="http://www.w3.org/2000/svg">
<path d="M20.32 2.66666H15.128C12.776 2.66666 10.912 2.66666 9.45467 2.864C7.95333 3.06666 6.73867 3.49333 5.78133 4.45466C4.82267 5.416 4.39733 6.636 4.196 8.14266C4 9.60666 4 11.4773 4 13.8387V21.6227C4 23.6333 5.22667 25.356 6.96933 26.0787C6.88 24.8653 6.88 23.1653 6.88 21.7493V15.0693C6.88 13.3613 6.88 11.888 7.03733 10.7093C7.20667 9.44533 7.588 8.23466 8.56667 7.252C9.54533 6.26933 10.752 5.88666 12.0107 5.716C13.184 5.55866 14.6507 5.55866 16.3533 5.55866H20.4467C22.148 5.55866 23.612 5.55866 24.7867 5.716C24.4347 4.81783 23.8202 4.04652 23.0235 3.50261C22.2268 2.95869 21.2847 2.66739 20.32 2.66666Z" />
<path d="M8.79999 15.196C8.79999 11.5613 8.79999 9.744 9.92532 8.61467C11.0493 7.48534 12.8587 7.48534 16.48 7.48534H20.32C23.94 7.48534 25.7507 7.48534 26.876 8.61467C28 9.744 28 11.5613 28 15.196V21.6227C28 25.2573 28 27.0747 26.876 28.204C25.7507 29.3333 23.94 29.3333 20.32 29.3333H16.48C12.86 29.3333 11.0493 29.3333 9.92532 28.204C8.79999 27.0747 8.79999 25.2573 8.79999 21.6227V15.196Z" />
<path d="M15 18.7733L17.6667 21.3333L23 16" stroke="white" stroke-width="2" stroke-linecap="round" stroke-linejoin="round"/>
</svg>
