<svg xmlns="http://www.w3.org/2000/svg" width="32" height="32" viewBox="0 0 24 24"><path  d="m17 17.2l-.9-.9q-.275-.275-.7-.275t-.7.275q-.275.275-.275.7t.275.7l2.6 2.6q.3.3.7.3t.7-.3l2.6-2.6q.275-.275.275-.7t-.275-.7q-.275-.275-.7-.275t-.7.275l-.9.9v-3.175q0-.425-.288-.713T18 13.025q-.425 0-.713.288t-.287.712V17.2ZM15 22h6q.425 0 .713.288T22 23q0 .425-.288.713T21 24h-6q-.425 0-.713-.288T14 23q0-.425.288-.713T15 22Zm-9-2q-.825 0-1.413-.588T4 18V4q0-.825.588-1.413T6 2h6.175q.4 0 .763.15t.637.425l4.85 4.85q.275.275.425.638t.15.762v1.2q0 .425-.288.712t-.712.288q-.425 0-.713-.288T17 10.026V9h-3.5q-.625 0-1.063-.438T12 7.5V4H6v14h5q.425 0 .713.288T12 19q0 .425-.288.713T11 20H6Zm0-2V4v14Z"/></svg>